<svg xmlns="http://www.w3.org/2000/svg" version="1.1" xmlns:xlink="http://www.w3.org/1999/xlink" xmlns:svgjs="http://svgjs.dev/svgjs" width="128" height="128" viewBox="0 0 128 128"><g transform="matrix(0.44782608695652176,0,0,0.44782608695652176,35.339226276730436,12.5)"><svg viewBox="0 0 125 225" data-background-color="#ea9937" preserveAspectRatio="xMidYMid meet" height="230" width="128" xmlns="http://www.w3.org/2000/svg" xmlns:xlink="http://www.w3.org/1999/xlink"><g id="tight-bounds" transform="matrix(1,0,0,1,-0.00020899999999812735,0)"><svg viewBox="0 0 125 225" height="225" width="125"><g><svg></svg></g><g><svg viewBox="0 0 125 225" height="225" width="125"><g><path transform="translate(-29.29403,21.95688) scale(1.81951,1.81951)" d="M20.6 59.9l0.8 1-0.4-1.3c-0.1-0.6-0.8 0.1-0.4 0.3M21.5 59.3c0.3 0.5 0.6 1 0.6 1.5 0 0.7 0.6 1 1.1 1.2-0.7-0.8-1.1-3-1.7-2.7M59.9 16.9c1.7 0 3.3-0.2 5.1 0.2 4.4 1.1 8.1 3.3 10.6 6.4l7 11.2c0.3 2.8 0.9 5.9 0.8 9.3 0.7 0 0.6-1 1.4-1.2-0.8 2-1.2 4.5-1.4 7.4-0.5-1.6 0-4 0.1-5.3-0.7 1.1-1.1 0.3-1.1-0.2 0.1-0.8-0.3-0.7-0.6-1-1.1-1-1.8-2.1-2.6-3.8 0.5-1.3 0.6-3.2-1-4.2-0.5-0.3-1.1-0.8-1.4-1.6-0.4-1.1-1.1-2.4-0.9-4.1 0.1-0.5-1.5 1.1-2.4 0.4-3.9-2.7-7.8-5.8-12.5-8.4-2.5 0-4.3-0.9-5.2-2-0.8-1-0.2-2.3 1-2.4 0.7 0 1.5-0.2 2.1 0.2 0.1-0.4 0.5-0.9 1-0.9M50 14.6l0.2 0.1c1 0.2 1.5 1.6 2.6 1.1 0 0.7 0.1 1.4-0.1 1.9-0.3 0.8-1.2 0.8-1.9 0.8-6.7-0.4-10.6 2.4-14.7 4.8-1.1 0.7-2.3 1.2-3.2 2.1-4.3 4-9 7.7-10.1 15.1l-0.9 8.2c-0.1 0.9-1.1 1.8-0.9 2.9l0.7 4.9c-0.7-0.7-1.1 0.2-0.9 0.6 0.1 0.3 0.5 1.3 1.1 0.4 0.8 1.5 1.6 4.4 2.7 5.7 3.4 4 7.8 7.6 11.4 11.2 0.9-0.2 1.6-0.2 1.8-0.8 0.3 0.6-0.3 1.2-0.8 1.3 1.6 1 3.4 1.9 5.8 2.1 3.1 0.2 6 0.7 8.7 1.4 1.4-0.4 2.8-0.6 4.3-0.7 0.5 0 0.8-0.8 1.4-1l0.1-1c0.6 0.9 0.5-0.3 0.1-0.9 0.7 0.6 0.9 1.1 1.2 1.5 0-0.3 0.8-1.4 0.8-0.1l0.2-1.3c0.3-0.2 0.4 1.1 0.7 0.2 0.3-0.9 0.9-0.2 1.5-0.5-0.2 0.4-0.1 1.2 0.6 0.7l0.8-0.7c0.5 1.2 1.3 0.7 1.7 0.5 4.4-2.8 8.8-6.1 13-9.4l-0.1 1.3 0.5-1.6c0.5 0.5 0.9 0.1 1.1-0.2 0.6-1 1.4-2 2.7-2.9-1.6 4.3-3.5 7.7-5.9 10.5l-1 1.2c0 0.7-0.2 1.6-1 1.7-0.4 0.1-1.2-0.2-1.8 0.4-0.3 0.4 0.7 1.2-0.1 0.6-0.7-0.5-1.4 0-2.2 0.2-0.6 0.2 0.4 0.8 0.6 1.2 0.2 0.4 0.4 0.8 0.3 1.3l-1.1-1.2c-1.3 0.7-2.1 2-3.2 3-0.5 0.4-0.3 1.1-0.3 1.7-0.7 0-1.5-0.2-1.9 0.2-0.3 0.4-0.2 1-0.2 1.6-1-0.1-1.1-1.6-2-1.3-0.9 0.2-1.9 0.3-2.7 0.8 0.6 1.2-1 0.5-0.8 0.7-1.5-0.9-2.8-1.6-4.4-1-3.4-1.1-7.6-0.6-10.7-0.2 0-0.5 0.1-1-0.1-1.1-0.2 0.5-0.8 0.3-0.7 0.3-1.9-1.3-3.8-2.1-5.8-3.2-1.8 0.2-3.5-0.7-4-1.2-1.4-1.3-3-0.6-4.3-0.9-2.8-0.7-3.8-3.6-4.1-5.6-0.2-1-1-1.4-1.3-1.3-1.3-4.2-3.3-8-4.9-11.9-0.4-1-0.3-2-0.3-3.1 0.5 0.2 1 0.1 0.9-0.6-0.5-3.3-1.7-5.8-3-8.2 0.7-3.4 0.8-7.4 2.4-10.4 1.4-2.7 4-4.1 5.8-6.4 0.6-0.8 0.6-1.9 1.2-2.6 2-2 4-4.1 6.2-5.9 1-0.8 2.2 0 3.7-0.3 0.5-1.8 2.5-3.4 4.4-2.9 0.8 0.2 2.4-1.9 2.9-2.1 0.8-0.3 0.4 0.8 0.4 1.5 1.9-1.5 4.5-2.3 6.9-3.2" fill="#ea3c12" fill-rule="nonzero" stroke="none" stroke-width="1" stroke-linecap="butt" stroke-linejoin="miter" stroke-miterlimit="10" stroke-dasharray="" stroke-dashoffset="0" font-family="none" font-weight="none" font-size="none" text-anchor="none" style="mix-blend-mode: normal" data-fill-palette-color="tertiary"></path></g><g transform="matrix(1,0,0,1,48.17785,98.45074920081096)"><svg viewBox="0 0 28.6443 28.098501598378075" height="28.098501598378075" width="28.6443"><g><svg viewBox="0 0 28.6443 28.098501598378075" height="28.098501598378075" width="28.6443"><g><svg viewBox="0 0 28.6443 28.098501598378075" height="28.098501598378075" width="28.6443"><g id="textblocktransform"><svg viewBox="0 0 28.6443 28.098501598378075" height="28.098501598378075" width="28.6443" id="textblock"><g><svg viewBox="0 0 28.6443 28.098501598378075" height="28.098501598378075" width="28.6443"><g><svg viewBox="0 0 28.6443 28.098501598378075" height="28.098501598378075" width="28.6443"><g><svg xmlns="http://www.w3.org/2000/svg" xmlns:xlink="http://www.w3.org/1999/xlink" version="1.1" x="0" y="0" viewBox="14.15475 14.837760824557641 71.69024999999999 70.32423917544236" enable-background="new 0 0 100 100" xml:space="preserve" height="28.098501598378075" width="28.6443" class="icon-icon-0" data-fill-palette-color="accent" id="icon-0"><g fill="#ffbe79" data-fill-palette-color="accent"><g fill="#ffbe79" data-fill-palette-color="accent"><path d="M55.41 52.471c-0.388 0-0.788-0.143-1.189-0.425-0.324-0.229-0.632-0.528-0.971-0.869-0.306-0.303-0.576-0.572-0.837-0.76-0.451-0.313-0.754-0.323-1.227 0.005-0.259 0.186-0.533 0.458-0.824 0.747-0.345 0.346-0.649 0.644-0.971 0.874-0.839 0.581-1.571 0.569-2.383 0.004-0.349-0.246-0.679-0.577-0.971-0.87-0.299-0.297-0.574-0.57-0.838-0.76-0.453-0.314-0.766-0.317-1.229 0.005-0.249 0.179-0.513 0.44-0.793 0.719-0.374 0.375-0.68 0.674-1.005 0.904-0.812 0.57-1.57 0.569-2.379 0.001-0.329-0.233-0.646-0.545-0.968-0.87-0.306-0.302-0.578-0.57-0.84-0.759-0.225-0.161-0.276-0.473-0.115-0.697 0.161-0.226 0.475-0.275 0.697-0.115 0.326 0.234 0.641 0.544 0.944 0.844 0.313 0.316 0.596 0.595 0.858 0.78 0.455 0.32 0.765 0.321 1.226-0.001 0.26-0.184 0.532-0.451 0.836-0.756 0.336-0.334 0.641-0.637 0.962-0.867 0.822-0.571 1.567-0.569 2.382-0.004 0.336 0.241 0.651 0.555 0.957 0.858 0.275 0.275 0.572 0.574 0.849 0.77 0.463 0.321 0.752 0.329 1.233-0.003 0.252-0.181 0.525-0.449 0.829-0.754 0.318-0.316 0.635-0.63 0.965-0.867 0.833-0.58 1.567-0.571 2.381-0.004 0.331 0.238 0.644 0.549 0.945 0.849 0.271 0.271 0.58 0.582 0.86 0.778 0.457 0.322 0.768 0.321 1.225 0.001 0.262-0.186 0.544-0.464 0.833-0.756 0.355-0.354 0.65-0.64 0.97-0.868 0.812-0.57 1.562-0.569 2.376-0.004 0.349 0.248 0.679 0.579 0.971 0.87 0.308 0.297 0.562 0.536 0.861 0.774 0.217 0.172 0.253 0.486 0.081 0.702-0.173 0.218-0.486 0.253-0.702 0.081-0.325-0.258-0.603-0.517-0.941-0.845-0.27-0.27-0.569-0.569-0.845-0.766-0.46-0.318-0.761-0.321-1.223 0.002-0.274 0.197-0.575 0.496-0.84 0.759-0.319 0.322-0.636 0.634-0.964 0.866C56.198 52.327 55.798 52.471 55.41 52.471z" fill="#ffbe79" data-fill-palette-color="accent"></path></g><path d="M85.604 83.51L51.152 23.838l4.254-7.368c0.276-0.479 0.112-1.09-0.366-1.366-0.478-0.275-1.09-0.112-1.366 0.366l-3.681 6.375-3.756-6.507c-0.277-0.479-0.89-0.642-1.366-0.366-0.479 0.276-0.643 0.888-0.366 1.366l4.326 7.494-34.542 59.83c-0.179 0.31-0.179 0.69 0 1s0.509 0.5 0.866 0.5h69.67c0.008 0 0.015 0 0.02 0 0.553 0 1-0.447 1-1C85.845 83.913 85.754 83.686 85.604 83.51zM65.043 83.162L50 57.107 34.958 83.162h-18.07l3.63-6.287c0.017-0.023 0.038-0.043 0.053-0.068l29.423-50.962 29.347 50.83c0.009 0.015 0.021 0.024 0.03 0.039l3.723 6.448H65.043z" fill="#ffbe79" data-fill-palette-color="accent"></path></g></svg></g></svg></g></svg></g></svg></g></svg></g><g></g></svg></g></svg></g></svg></g><defs></defs></svg><rect width="125" height="225" fill="none" stroke="none" visibility="hidden"></rect></g></svg></g></svg>